<?xml version="1.0" encoding="UTF-8" standalone="no"?>
<svg
   xmlns:dc="http://purl.org/dc/elements/1.1/"
   xmlns:cc="http://creativecommons.org/ns#"
   xmlns:rdf="http://www.w3.org/1999/02/22-rdf-syntax-ns#"
   xmlns:svg="http://www.w3.org/2000/svg"
   xmlns="http://www.w3.org/2000/svg"
   xmlns:xlink="http://www.w3.org/1999/xlink"
   id="svg2"
   height="790"
   width="740"
   version="1.0">
  <metadata
     id="metadata150">
    <rdf:RDF>
      <cc:Work
         rdf:about="">
        <dc:format>image/svg+xml</dc:format>
        <dc:type
           rdf:resource="http://purl.org/dc/dcmitype/StillImage" />
        <dc:title></dc:title>
      </cc:Work>
    </rdf:RDF>
  </metadata>
  <defs
     id="defs77">
    <linearGradient
       id="linearGradient4373">
      <stop
         id="stop4375"
         style="stop-color:#ff5454;stop-opacity:1"
         offset="0" />
      <stop
         id="stop4377"
         style="stop-color:#cc0000;stop-opacity:1"
         offset="1" />
    </linearGradient>
    <linearGradient
       id="linearGradient4261">
      <stop
         id="stop4263"
         style="stop-color:#cccccc;stop-opacity:1"
         offset="0" />
      <stop
         id="stop4265"
         style="stop-color:#8c8c8c;stop-opacity:1"
         offset="1" />
    </linearGradient>
    <linearGradient
       gradientUnits="userSpaceOnUse"
       y2="601.25824"
       x2="208.62292"
       y1="601.25824"
       x1="114.82114"
       id="linearGradient5057"
       xlink:href="#linearGradient4373" />
    <linearGradient
       gradientUnits="userSpaceOnUse"
       y2="750.44696"
       x2="95.11702"
       y1="750.44696"
       x1="39.961872"
       id="linearGradient5065"
       xlink:href="#linearGradient4261" />
    <linearGradient
       gradientUnits="userSpaceOnUse"
       y2="736.23145"
       x2="134.98438"
       y1="736.23145"
       x1="39.960938"
       id="linearGradient1183"
       xlink:href="#linearGradient4261" />
    <linearGradient
       gradientUnits="userSpaceOnUse"
       y2="717.03815"
       x2="79.519531"
       y1="717.03815"
       x1="12.373047"
       id="linearGradient1191"
       xlink:href="#linearGradient4261" />
    <linearGradient
       gradientUnits="userSpaceOnUse"
       y2="706.1123"
       x2="178.9805"
       y1="706.1123"
       x1="79.125"
       id="linearGradient1199"
       xlink:href="#linearGradient4261" />
    <linearGradient
       gradientUnits="userSpaceOnUse"
       y2="605.43555"
       x2="135.05466"
       y1="605.43555"
       x1="17.167969"
       id="linearGradient1207"
       xlink:href="#linearGradient4261" />
    <linearGradient
       gradientUnits="userSpaceOnUse"
       y2="681.29004"
       x2="224.70312"
       y1="681.29004"
       x1="95.375"
       id="linearGradient1215"
       xlink:href="#linearGradient4261" />
    <linearGradient
       gradientUnits="userSpaceOnUse"
       y2="685.4809"
       x2="198.32478"
       y1="685.4809"
       x1="185.34731"
       id="linearGradient1223"
       xlink:href="#linearGradient4261" />
    <linearGradient
       gradientUnits="userSpaceOnUse"
       y2="607.87109"
       x2="267.00977"
       y1="607.87109"
       x1="114.82031"
       id="linearGradient1231"
       xlink:href="#linearGradient4373" />
    <linearGradient
       gradientUnits="userSpaceOnUse"
       y2="501.20602"
       x2="180.79102"
       y1="501.20602"
       x1="53.312496"
       id="linearGradient1239"
       xlink:href="#linearGradient4261" />
    <linearGradient
       gradientUnits="userSpaceOnUse"
       y2="459.22168"
       x2="333.45312"
       y1="459.22168"
       x1="159.19336"
       id="linearGradient1247"
       xlink:href="#linearGradient4261" />
    <linearGradient
       gradientUnits="userSpaceOnUse"
       y2="253.52641"
       x2="445.89056"
       y1="253.52641"
       x1="273.42578"
       id="linearGradient1255"
       xlink:href="#linearGradient4261" />
    <linearGradient
       gradientUnits="userSpaceOnUse"
       y2="94.201172"
       x2="735.41602"
       y1="94.201172"
       x1="387.82227"
       id="linearGradient1263"
       xlink:href="#linearGradient4261" />
    <linearGradient
       y2="459.22168"
       x2="333.45312"
       y1="459.22168"
       x1="159.19336"
       gradientUnits="userSpaceOnUse"
       id="linearGradient903"
       xlink:href="#linearGradient4261" />
    <linearGradient
       y2="501.20602"
       x2="180.79102"
       y1="501.20602"
       x1="53.312496"
       gradientUnits="userSpaceOnUse"
       id="linearGradient908"
       xlink:href="#linearGradient4261" />
  </defs>
  <style
     id="style5"
     type="text/css" />
  <style
     type="text/css"
     id="style5-3" />
  <g
     style="display:inline;opacity:1"
     id="layer1">
    <g
       style="fill:url(#linearGradient1263);fill-opacity:1.0;stroke:none"
       id="g4622">
      <title
         style="fill-opacity:1.0;fill:url(#linearGradient1263)"
         id="title1147">Troms og Finnmark</title>
      <path
         id="path4514"
         d="M 613.05859 2.9335938 L 612.87695 8.4570312 L 609.35742 8.3964844 L 607.29297 10.398438 L 610.57031 12.099609 L 607.6582 16.955078 L 606.56445 24.783203 L 602.55859 21.445312 L 600.79883 22.294922 L 599.09961 17.925781 L 596.55078 17.865234 L 592.60547 16.347656 L 590.60352 18.775391 L 592.48438 21.6875 L 591.69531 26.179688 L 586.90039 23.933594 L 585.01953 28.486328 L 587.68945 30.125 L 590.29883 30.853516 L 594.79102 36.861328 L 593.75977 38.865234 L 587.56836 35.464844 L 582.5918 43.355469 L 584.6543 46.9375 L 577.12891 47.724609 L 568.50977 57.193359 L 569.35938 59.621094 L 565.11133 64.294922 L 566.56836 70.302734 L 563.5332 72.851562 L 564.50391 75.402344 L 567.23633 75.826172 L 568.99609 78.679688 L 566.93164 81.349609 L 562.62305 81.957031 L 560.98438 78.740234 L 558.55664 76.191406 L 558.55664 72.306641 L 555.2793 71.03125 L 555.82617 67.269531 L 552.73047 67.207031 L 549.27148 64.052734 L 545.81055 64.052734 L 545.02148 66.541016 L 545.32617 69.878906 L 543.6875 71.091797 L 542.5957 69.392578 L 542.95898 64.597656 L 541.38086 61.685547 L 540.04492 63.324219 L 536.34375 60.470703 L 534.03711 61.867188 L 533.33984 67.753906 L 532.19922 68.634766 L 526.51172 61.320312 L 525.17578 64.779297 L 521.89844 65.205078 L 521.48047 66.398438 L 521.24023 67.501953 L 525.08008 70.732422 L 525.26758 73.095703 L 529.69727 75.705078 L 536.10156 73.914062 L 537.22461 75.189453 L 534.64453 78.011719 L 537.64844 79.923828 L 537.22461 83.201172 L 535.3418 83.837891 C 535.3418 83.837891 538.88271 95.449314 538.10352 95.916016 C 537.32433 96.382718 531.91211 88.207031 531.91211 88.207031 L 528.21094 86.205078 L 525.57031 80.894531 L 522.47461 79.164062 L 519.77539 79.802734 L 518.89453 82.623047 L 520.5332 87.296875 L 518.71289 91.150391 L 517.01367 89.421875 L 515.2832 89.634766 L 513.76562 92.183594 L 512.61328 88.601562 L 513.03711 87.023438 L 511.27734 86.417969 L 509.94141 88.419922 L 509.45703 93.275391 L 503.53906 95.945312 L 503.47852 104.99023 L 508.15234 108.7832 L 508.45508 110.78516 L 502.17383 108.50977 L 499.32031 113.42578 L 496.86328 119.09961 L 495.49805 117.00586 L 500.50391 105.11133 L 498.68359 99.800781 L 500.625 87.236328 L 499.74609 83.958984 L 497.80273 83.230469 L 488.82031 99.921875 L 490.36914 105.92969 L 487.06055 107.47852 L 484.17773 115.48828 L 482.26562 116.52148 L 485.63477 101.34766 L 486.48438 93.669922 L 484.78516 91.910156 L 481.23438 92.123047 L 473.22266 96.068359 L 468.85352 103.83594 L 468.67188 107.41797 L 473.89062 107.8125 L 474.01172 109.29883 L 469.36914 113.15234 L 471.73633 116.82422 L 477.16797 120.4668 L 477.80469 124.22852 L 479.74805 127.08203 L 476.43945 129.53906 L 473.85938 128.81055 L 474.07227 125.92773 L 476.31836 123.89453 L 470.49219 119.82812 L 465.60547 108.7832 L 460.32617 108.9043 L 457.98828 111.42188 L 462.60156 120.67773 L 467.91211 123.13672 L 459.14258 124.28906 L 453.28516 112.08984 L 451.09961 113.60742 L 449.91602 119.73828 L 446.21484 124.92773 L 448.42969 131.26953 L 438.53711 135.24414 L 433.80273 142.55859 L 433.58984 147.01953 L 439.78125 148.08203 L 441.38867 149.50781 L 434.83398 150.8125 L 433.62109 152.90625 L 437.56641 155.82031 L 430.95117 155.18164 L 428.25 157.88281 L 432.74023 160.73633 L 430.95117 162.2832 L 424.27344 160.18945 L 422.48438 163.28516 L 418.38672 160.82617 L 411.58984 165.28711 L 411.5293 169.44531 L 409.53711 170.75195 L 411.79102 171.98047 L 416.71094 167.85742 L 422.99219 169.87695 L 433.21289 167.30664 L 443.39062 168.73047 L 446.69531 172.69531 L 453.25586 171.50781 L 457.625 175.60547 L 469.24805 176.72852 L 488.1543 185.46875 L 494.61719 177.73047 L 489.54883 173.11719 L 498.44141 156.45703 L 496.67578 147.50977 L 493.55469 142.31641 L 505.14648 140.3125 L 506.99805 137.49023 L 514.3418 141.55664 L 516.31445 139.88867 L 514.61523 131.20898 L 521.50391 123.43945 L 529.57617 126.23242 L 537.27148 139.43359 L 537.79297 140.43359 L 542.16992 146.95898 L 541.01758 149.38672 L 544.05078 152.05664 L 547.14648 163.3457 L 550.30273 161.16016 L 553.2168 163.4668 L 561.28906 163.4668 L 564.6875 167.83594 L 568.93555 163.95312 L 575.12695 162.19336 L 578.70703 154.12109 L 582.53125 154.18164 L 589.38867 161.82812 L 597.82617 162.91992 L 603.71289 170.32617 L 608.20312 167.41211 L 609.59961 155.63672 L 613.96875 149.93164 L 618.76367 150.41797 L 623.74023 141.00977 L 620.64648 126.62695 L 623.92383 106.7793 L 624.28711 97.3125 L 629.44727 91.849609 L 635.27344 79.771484 L 646.13672 81.349609 L 653.05664 79.164062 L 654.02734 75.21875 L 659.24609 69.634766 L 666.65039 68.421875 L 670.96094 78.435547 L 675.69336 79.589844 L 677.81836 83.898438 L 693.78125 90.332031 L 699.54688 106.7793 L 692.02148 118.79688 L 690.13867 128.14453 L 694.93359 132.45312 L 698.08984 132.9375 L 701.73242 129.66016 L 701.85352 114.18359 L 713.6875 105.44531 L 718.54297 95.916016 L 716.41992 91.242188 L 718.72656 89.724609 L 725.09766 95.126953 L 730.31836 96.583984 L 734.32422 95.550781 L 735.41602 90.695312 L 731.04688 80.560547 L 725.28125 79.164062 L 723.15625 80.742188 L 719.51367 76.373047 L 717.14844 77.525391 L 718.48242 80.802734 L 716.54102 86.873047 L 708.22656 87.115234 L 707.01172 84.324219 L 710.5918 83.291016 L 713.62695 79.408203 L 710.77539 75.341797 L 708.4082 77.464844 L 702.58203 75.097656 L 703.61328 71.880859 L 699.48633 69.453125 L 694.8125 70.121094 L 692.81055 68.240234 L 682.85547 65.8125 L 681.88477 60.470703 L 705.37305 63.748047 L 710.04688 65.507812 L 719.0293 59.802734 L 718.9082 56.041016 L 722.42773 51.853516 L 728.80078 49.425781 L 732.07812 46.753906 L 729.28711 38.076172 L 725.76562 39.53125 L 720.18164 32.976562 L 709.74219 35.101562 L 712.7168 27.939453 L 707.55859 22.660156 L 702.88477 27.089844 L 699.72852 22.476562 L 692.6875 26.787109 L 692.32422 21.992188 L 690.32227 18.470703 L 684.37305 14.830078 L 680.85352 16.710938 L 676.54492 23.023438 L 674.41992 33.462891 L 675.99805 41.958984 L 672.11328 43.902344 L 669.01758 42.142578 L 665.49805 42.626953 L 663.13086 41.837891 L 669.625 32.552734 L 669.92773 28.242188 L 664.64844 31.945312 L 663.37305 30.367188 L 666.4082 27.576172 L 661.00586 25.208984 L 662.50781 22.802734 L 668.89648 21.871094 L 673.8125 11.855469 L 672.66016 8.578125 L 667.68359 9.0039062 L 666.10547 3.4804688 L 658.27539 6.3320312 L 655.05859 3.7226562 L 652.44922 5.0585938 L 652.08398 10.763672 L 647.77539 8.8222656 L 646.68359 12.402344 L 644.67969 17.439453 L 650.02148 18.046875 L 652.08398 21.142578 L 649.47461 23.083984 L 648.86719 27.332031 L 646.13672 27.939453 L 644.86328 33.462891 L 647.04688 36.011719 L 643.70898 38.378906 L 644.86328 44.691406 L 641.88867 44.751953 L 634.9082 51.125 L 635.08984 36.375 L 633.75586 32.066406 L 636.0625 28.970703 L 635.39453 15.861328 L 631.93555 16.892578 L 625.50195 28 L 611.66406 56.041016 L 612.87695 59.742188 L 607.17188 70.121094 L 603.28711 73.580078 L 600.19141 68.240234 L 605.16992 57.375 L 602.80273 54.341797 L 606.32227 51.488281 L 607.05078 47.603516 L 603.83398 44.933594 L 617.73242 23.570312 L 617.73242 19.988281 L 610.20703 20.65625 L 610.50977 17.197266 L 615.00195 14.587891 L 618.09766 14.890625 L 622.28516 11.976562 L 619.06836 9.4882812 L 620.40234 5.7871094 L 617.61133 5.5449219 L 613.05859 2.9335938 z M 593.15234 7.8183594 L 592.18164 9.7324219 L 594.12305 11.126953 L 595.58008 10.095703 L 595.56836 8.0722656 L 593.15234 7.8183594 z M 579.73828 13.191406 L 577.97852 14.041016 L 577.97852 18.835938 L 581.25586 18.654297 L 581.86328 16.408203 L 579.73828 13.191406 z M 562.92773 26.058594 L 560.22656 27.605469 L 559.98242 31.824219 L 558.68359 34.078125 L 556.40234 34.585938 L 554.85547 32.613281 L 553.15625 32.794922 L 552.48828 36.619141 L 549.75586 38.076172 L 547.69336 35.222656 L 545.26562 35.34375 L 541.92773 37.771484 L 539.56055 37.953125 L 537.07227 39.775391 L 542.10938 42.869141 L 540.95508 47.96875 L 545.32617 47.664062 L 551.15234 43.902344 L 555.03711 44.144531 L 559.4668 40.320312 L 559.89258 37.287109 L 563.83789 33.886719 L 566.32617 28.486328 L 565.6582 26.482422 L 562.92773 26.058594 z M 573.94336 32.431641 L 572.36523 38.378906 L 572.94141 43.113281 L 576.2793 44.873047 L 579.49609 42.566406 L 580.70898 37.4375 L 578.2207 34.919922 L 573.94336 32.431641 z M 568.81445 40.867188 L 565.23242 45.054688 L 559.58789 46.511719 L 556.49414 50.578125 L 555.70508 55.3125 L 560.13477 57.132812 L 560.37695 59.742188 L 563.29102 60.107422 L 571.60547 49.121094 L 568.81445 40.867188 z M 550.12109 55.554688 L 545.90234 59.560547 L 554.91602 63.474609 L 556.82812 62.048828 L 553.27734 55.949219 L 550.12109 55.554688 z M 530.61719 55.9375 L 529.33008 60.314453 L 530.4043 61.6875 L 532.01367 58.8125 L 530.61719 55.9375 z M 484.57227 62.169922 L 484.08594 64.476562 L 486.63672 68.240234 L 487 74.248047 L 491.49219 75.341797 L 494.16211 72.851562 L 490.70312 66.904297 L 488.75977 66.722656 L 486.63672 62.595703 L 484.57227 62.169922 z M 474.80078 64.902344 L 473.34375 68.847656 L 475.07422 69.697266 L 476.31836 65.933594 L 474.80078 64.902344 z M 507.87891 65.023438 L 504.11523 66.964844 L 500.7168 72.548828 L 502.35547 75.097656 L 505.20703 74.248047 L 506.36133 76.494141 L 508.60742 75.523438 L 509.94141 67.207031 L 507.87891 65.023438 z M 480.26367 68.96875 L 480.01953 71.091797 L 482.87305 72.609375 L 483.48047 71.638672 L 482.26562 68.96875 L 480.26367 68.96875 z M 466.24219 72.246094 L 463.9375 76.251953 L 464.48242 77.646484 L 467.69922 75.402344 L 468.125 73.580078 L 466.24219 72.246094 z M 474.98242 73.519531 L 472.19141 77.283203 L 470.24805 76.494141 L 467.94336 78.679688 L 468.66992 81.410156 L 465.39258 82.988281 L 465.63672 84.748047 L 473.58594 90.939453 L 477.89648 89.361328 L 480.08008 85.476562 L 484.14648 80.134766 L 484.33008 77.830078 L 481.47656 76.3125 L 479.35352 78.375 L 474.98242 73.519531 z M 510.54883 77.767578 L 509.27344 81.107422 L 512.00586 83.535156 L 514.20312 82.242188 L 515.10156 79.953125 L 510.54883 77.767578 z M 488.33594 79.832031 L 482.69141 86.205078 L 482.26562 88.693359 L 486.57422 88.085938 L 489.79102 81.470703 L 488.33594 79.832031 z M 507.8125 86.320312 L 506.4668 86.359375 L 505.77344 91.626953 L 507.46484 91.65625 L 507.8125 86.320312 z M 465.27148 87.964844 L 464.11914 93.367188 L 464.96875 97.189453 L 467.45703 96.947266 L 470.49219 94.216797 L 468.97461 91 L 465.27148 87.964844 z M 460.05273 91.363281 L 454.95508 93.609375 L 456.71484 97.373047 L 452.58789 98.283203 L 452.46484 102.95703 L 450.28125 102.28906 L 448.88477 104.5332 L 451.07031 107.87305 L 462.84375 106.47656 L 465.27148 104.5332 L 461.75195 96.947266 L 461.87305 92.699219 L 460.05273 91.363281 z M 442.33008 105.74805 L 439.35547 106.17188 L 440.02344 109.20703 L 436.32227 111.51367 L 432.55859 108.35742 L 429.40234 110.48242 L 432.49805 115.45898 L 431.70898 117.21875 L 426.67188 115.39844 L 421.87695 117.82617 L 425.0332 121.10352 L 423.27148 123.53125 L 426.06445 127.05078 L 422.54492 128.26562 L 422.57031 129.79102 L 424.18359 131.29883 L 418.17383 136.76172 L 422.79102 136.25391 L 424.91211 138.09766 L 426.97461 135.36523 L 430.10547 133.94336 L 433.28711 129.72266 L 434.19727 132.02734 L 440.44922 131.11719 L 444.69727 128.93359 L 443.36133 127.53711 L 442.99805 121.77148 L 447.00391 119.70703 L 448.15625 114.91211 L 445.9707 113.57812 L 447.18555 109.38867 L 443.48242 110.60352 L 442.33008 105.74805 z M 433.22656 135.66992 L 430.73828 137.1875 L 429.82812 140.82812 L 431.16211 141.73828 L 433.77148 139.06836 L 433.22656 135.66992 z M 407.12891 140.46484 L 406.2168 143.98438 L 409.91992 147.44336 L 412.4082 146.41211 L 412.10547 143.4375 L 407.12891 140.46484 z M 393.33789 143.14648 L 392.03516 156.70508 L 387.82227 171.11914 L 389.45312 172.78906 L 395.45703 164.5625 L 397.64844 164.68359 L 396.84766 169.48828 L 397.86133 171.70898 L 398.93555 169.83984 L 405.66016 167.66602 L 406.82617 167.35547 L 408.82812 166.44141 L 410.4668 154.42383 L 404.33594 147.08008 L 400.20898 153.20898 L 401.9082 155.27344 L 397.17383 162.43555 L 393.95703 162.55664 L 396.62891 155.27344 L 394.32227 153.99805 L 395.53516 144.00195 L 393.33789 143.14648 z M 428.00586 146.71484 L 426.55078 147.86914 L 425.39648 151.63086 L 426.55078 153.63477 L 429.94922 151.99609 L 430.3125 149.87109 L 428.00586 146.71484 z M 421.26953 149.75 L 417.02148 156.73047 L 418.23438 158.24805 L 423.69727 154.54492 L 421.26953 149.75 z M 403.22461 169.75586 L 399.43359 172.76172 L 396.8457 179.80273 L 407.0957 176.26758 L 407.27734 170.53711 L 403.22461 169.75586 z "
         style="fill:url(#linearGradient1263);fill-opacity:1.0;fill-rule:evenodd;stroke:none;stroke-width:1px;stroke-linecap:butt;stroke-linejoin:round;stroke-opacity:1" />
    </g>
    <g
       style="fill:#cccccc;fill-opacity:1;stroke:none"
       id="g4632" />
    <g
       style="fill:url(#linearGradient1255);fill-opacity:1.0;stroke:none"
       id="g4710">
      <title
         style="fill-opacity:1.0;fill:url(#linearGradient1255)"
         id="title1157">Nordland</title>
      <path
         id="path4652"
         d="m 403.54688,121.52734 -7.22266,2.79297 -1.51758,4.06641 -6.79687,6.06836 -2.125,8.67969 1.70117,1.09179 2.24414,-4.73242 4.00586,-0.36523 6.49414,-6.61524 z m -24.3379,15.05274 -2.30664,2.91406 0.78907,9.22461 -4.24805,-0.72852 -3.51953,3.58008 -3.39844,-2.00195 -5.3418,6.37305 0.42579,4.12695 2.18359,-0.24219 3.64258,-3.40039 3.39843,0.84961 5.64454,-4.30859 2.12304,2.54882 -8.00976,5.3418 -0.61914,2.41797 2.01367,0.91992 11.22851,-6.43359 -1.27343,-6.06836 1.82031,-2.36719 -2.79297,-5.34179 -0.30273,-5.82618 z m 13.08594,6.5957 -2.98047,3.08008 -0.67968,2.29687 0.89257,1.43946 -3.82422,2.42773 2.36719,3.70313 -3.15625,2.73047 1.69922,2.42773 -1.33398,2.30664 -5.22071,2.79297 -0.0605,5.94726 -3.51953,2.2461 -2.91407,7.52539 1.21485,0.48633 7.2832,-8.61914 1.69922,0.0605 -3.88477,6.55469 4.06641,-0.0606 2.30664,1.88086 6.79688,-8.31445 0.9707,4.30859 3.23047,-5.62109 -1.44336,-3.16797 0.79883,-3.92773 -0.64063,-0.0332 -6.36133,8.76172 -2.89648,-3 4.28515,-14.92187 z m 40.9961,25.18945 -10.33204,2.56836 -5.95507,-1.95117 -5.0293,4.17188 -2.93945,-1.47657 0.27734,3.53321 6.13086,0.72851 4.67383,-3.58007 0.48437,3.58007 3.27735,0.42383 7.07031,-4.1875 4.49219,5.12891 -5.79688,4.55273 -4.03515,-0.69922 -3.61133,2.48828 -2.36719,-1.88086 -3.36914,0.88086 -2.69922,-3.0039 -7.375,-0.39453 -3.0957,0.9707 4.46093,5.03711 -1.12304,1.54687 -6.3125,-3.45898 -0.66602,2.73047 2.82227,2.15625 -1.48828,2.75976 5.37109,0.15235 -0.30273,3.42969 -4.09766,3.06445 5.88867,0.60742 -4.40039,2.94336 2.0625,4.58203 -2.30469,1.94336 -2.91406,-4.67383 -4.30859,-1.27539 1.27343,-7.22265 -1.15234,-6.49414 -5.28125,9.58984 0.18164,2.24609 1.91211,2.64063 -2.63867,3.91406 -3.52149,-0.42578 -5.09765,3.0957 -2.42774,-1.15234 -4.00586,2.97461 -2.57421,-3.06055 1.57421,-1.95508 -1.68359,-1.71875 -3.14062,-0.21484 -0.60938,1.71094 2.125,1.96093 -4.1875,2.48828 -1.76172,3.3379 h 3.94531 l 0.48633,3.88281 -3.15625,-0.36328 -2.48828,2.54883 0.84961,3.15624 2.48828,0.18165 12.07813,-9.58985 6.1914,3.94531 -1.39648,1.76172 -3.76367,-1.0332 -3.2168,1.45703 -3.03516,6.07031 3.52149,0.84961 -2.66992,3.27735 1.51562,2.00195 2.48828,0.0606 2.42774,1.69922 -1.63868,4.73437 -3.27734,-3.33789 -6.37109,0.30273 1.69922,-3.15625 -2.18555,-3.45898 -6.19141,2.30664 -0.84961,2.60938 5.06836,3.24414 -1.04687,2.3125 -6.19336,-2.7168 -2.20899,1.71289 -5.7539,8.55664 5.33984,-1.45508 2.48828,1.27344 3.40039,0.0606 4.49024,-1.21289 2.73242,3.51953 8.375,3.45898 -2.79297,1.27539 -0.91016,3.58008 -2.9121,-4.06641 -6.19141,-1.51757 -1.94141,2.36718 -2.85351,-3.33789 -9.89258,1.69922 -3.15625,4.55274 3.15625,2.60937 -7.34375,3.33789 -3.2168,-3.39844 -2.66992,4.79493 -4.18945,-0.54688 -5.15821,2.2461 -0.36328,1.82031 5.21875,3.76367 1.45703,3.33789 -6.55468,-0.9707 -2.73242,1.63867 1.0332,2.79101 4.00586,-0.42382 1.9414,2.66992 h -6.55468 l -4.49219,-2.91211 -1.94141,1.69922 0.91016,3.58008 -3.33789,3.94531 3.51953,2.36719 -3.09375,2.79101 -2.125,-3.15625 -1.82031,-0.36328 -1.1543,1.33594 1.57812,5.40039 -3.0957,4.24805 2.67188,3.76367 2.85156,-2.18555 2.48828,0.60742 v 2.00391 l -7.70703,5.21875 1.0918,1.33594 11.77539,-4.06641 1.63867,2.24414 9.40625,-3.64063 3.2168,0.30274 -2.36719,0.84961 -5.33985,4.31055 -3.39843,0.18164 -1.03321,4.24804 -4.1875,0.72852 0.42578,-4.49219 -1.51757,-1.15234 -20.0293,5.70508 -0.18164,1.9414 5.58398,0.85156 -0.66797,3.94336 3.94532,3.52149 0.0605,4.00586 -8.375,-5.88867 -4.91601,5.88867 1.94141,2.66992 -3.03516,3.15625 2.125,6.67578 -1.94336,0.84961 -3.39844,-5.09766 -3.15625,2.66993 -0.42383,8.375 4.67383,-1.51563 -0.30469,3.39844 1.03125,3.4707 -1.10351,1.99024 -3.24219,-0.7754 -0.32812,4.81836 -3.45899,5.1836 1.76172,2.54883 -1.49023,3.08203 0.88281,1.16601 2.24609,-0.91015 h 3.58008 l -3.0957,4.00586 -9.04297,1.88086 -3.07227,3.98046 1.15821,1.56446 12.55859,2.81445 3.9668,-1.13477 7.33789,-7.27929 30.74804,2.74609 3.35157,-4.64453 0.0859,-3.9043 4.16407,-4.25 1.45898,-14.97656 4.46289,-12.91797 -1.07226,-19.82812 2.66015,-2.10352 13.30469,-0.1289 7.63867,-5.10547 0.38672,-14.29102 9.05469,-9.82812 7.4668,-11.80274 10.85937,-10.38476 1.1582,-15.40821 -5.53711,-8.92578 3.60547,-6.52344 3.5625,0.38672 6.60938,-11.37304 4.67773,-13.69141 13.30469,-10.77148 12.70312,10.30078 8.02539,-14.33399 -1.58007,-19.95703 1.95507,-2.07226 -2.98242,-3.66993 z m -59.39063,4.41993 -5.32227,4.30273 -2.25976,-3.5 -6.70898,3.64649 -0.29102,2.98828 -4.59375,1.82422 -0.14649,6.05078 6.34376,-1.89454 4.01171,-5.83398 2.1875,2.47852 2.62305,-2.98828 3.5,-2.77149 z m -27.63281,5.03125 -0.14649,1.82421 1.16602,0.65626 v -2.04297 z m 5.46875,0.0742 -1.89649,1.09376 1.16602,1.82226 2.40625,-0.36523 z m -9.99024,2.625 -3.28125,0.80079 0.58399,3.71875 -2.33399,1.53125 -0.65625,3.57226 2.625,2.48047 2.99024,-0.73047 1.16601,-3.5 5.97852,-2.84179 v -0.21876 l 0.0742,-1.89648 -3.42774,0.21875 -0.80273,-2.25977 z m -9.84375,6.5625 -1.23828,3.57227 -3.0625,2.25977 2.40625,2.11523 2.76953,-2.04297 0.58399,-4.8125 z m -6.92578,4.1543 -8.09375,14.875 3.13477,0.0723 1.24023,-5.39453 4.73828,-1.3125 -1.3125,-3.20899 1.09375,-2.11328 -0.58203,-2.77148 z m 61.10156,1.60547 -1.82421,1.67578 -3.42579,0.0742 -2.47851,2.33203 -0.21875,3.57422 4.30078,-2.33398 3.57227,3.42773 2.26171,-2.99023 -1.53124,-1.16602 1.23828,-4.01172 z m -39.08203,57.96484 -2.625,2.84375 -3.57226,0.875 -0.58399,2.11524 4.74024,2.33398 1.75,-3.57422 z m -12.54101,6.78125 -0.36524,2.55274 1.82422,-1.02149 z m -8.45899,12.03125 -0.36328,1.45899 0.65625,0.72851 z m -2.25976,4.66602 -2.47852,0.36523 0.21094,1.75 h 1.90234 z m -2.26758,2.11523 h -0.28516 l 0.29297,0.0723 z m -11.36719,17.9375 -1.16601,1.82227 1.45703,0.72852 0.58398,-1.67579 z m -4.74023,8.82227 -3.06055,1.16602 1.60352,1.67773 1.3125,-0.58398 z m 4.52148,1.3125 -1.96875,1.38477 0.875,1.38476 2.69727,-2.33203 z m -13.125,2.98828 -0.4375,2.11524 1.75,0.65625 0.80274,-1.82227 z m -1.01953,4.375 -5.03125,4.52149 1.09375,1.38476 5.39453,-1.82226 0.21875,-3.35352 z m 0.29102,8.82227 -1.60352,0.58398 -3.20898,5.10352 2.40625,1.45898 4.22851,-4.30273 z m 5.97851,0.0742 -2.47851,2.04101 2.47851,-0.36523 z m -25.88476,16.47851 -2.69727,1.82227 0.0742,2.69726 2.91602,0.875 1.67578,-0.50976 0.4375,-4.00977 z m 8.53125,9.69727 -1.16602,4.00976 1.75,1.75 -3.5,3.57227 0.21875,2.69922 -3.71875,2.91601 1.16602,4.15625 2.99023,-4.52148 h 1.67774 l 3.42578,-2.91602 -0.0723,-9.84375 z m -4.95703,5.97851 -3.0625,3.20899 2.55078,1.16601 -0.14453,-0.29101 z m 0.58203,15.16602 -1.89453,1.38476 -1.96875,5.6875 3.42578,1.02149 1.53125,-6.49024 z"
         style="fill:url(#linearGradient1255);fill-opacity:1.0;fill-rule:evenodd;stroke:none;stroke-width:1px;stroke-linecap:butt;stroke-linejoin:round;stroke-opacity:1">
        <title
           style="fill-opacity:1.0;fill:url(#linearGradient1255)"
           id="title1149">Nordland</title>
      </path>
    </g>
    <g
       style="fill:url(#linearGradient1247);fill-opacity:1.0;stroke:none"
       id="g4777">
      <title
         style="fill-opacity:1.0;fill:url(#linearGradient1247)"
         id="title1159">Trøndelag</title>
      <path
         id="path4751"
         d="M 272.21094 371.84961 L 267.04297 377.43359 L 268.21094 378.09961 L 273.87695 372.68164 L 272.21094 371.84961 z M 265.12695 372.01562 L 260.79297 373.68164 L 261.20898 375.18359 L 265.79297 373.26562 L 265.12695 372.01562 z M 273.77344 377.28711 L 265.54297 382.76758 L 262.54297 381.43359 L 261.20898 384.85156 L 262.20898 386.93555 L 271.29492 384.60156 L 265.29297 390.76953 L 266.95898 392.10156 L 263.12695 395.26953 L 258.29102 394.60352 L 257.79102 397.51953 L 261.95898 398.43555 L 260.79297 400.4375 L 255.375 399.9375 L 256.70898 404.85352 L 262.29297 404.35352 L 257.625 408.9375 L 257.625 410.93945 L 250.04102 415.52344 L 248.20703 409.60547 L 246.37305 408.4375 L 243.78906 401.85352 L 240.87305 408.9375 L 234.95508 408.60547 L 237.03906 413.10547 L 235.70508 414.43945 L 230.20312 411.77148 L 230.28711 414.85547 L 220.11914 423.02344 L 221.28516 424.44141 L 212.45117 428.77539 L 210.70117 435.85938 L 213.28516 435.85938 L 213.28516 438.52539 L 198.19922 444.77734 L 198.11523 449.27734 L 196.19922 450.27734 L 198.03125 452.19531 L 209.36719 449.61133 L 202.5332 455.11328 L 204.19922 463.69727 L 206.0332 465.69727 L 210.70117 463.03125 L 216.86914 462.86328 L 223.53711 458.36328 L 230.62109 455.86328 L 236.20508 451.11133 L 237.03906 445.19336 L 229.12109 447.77734 L 228.95312 446.02734 L 233.37109 444.61133 L 246.87305 433.19141 L 248.04102 438.52734 L 250.62305 438.60938 L 250.95703 440.02734 L 240.62305 446.69531 L 240.95508 449.27734 L 244.78906 447.77734 L 247.62305 450.44531 L 247.62305 452.86133 L 236.70508 458.44531 L 234.28711 457.11328 L 227.28711 463.61328 L 231.45508 462.94727 L 231.37109 465.03125 L 227.62109 467.53125 L 228.87109 470.44727 L 227.70312 473.69922 L 217.20117 472.53125 L 215.86914 470.19727 L 210.61719 469.44727 L 206.7832 470.61523 L 206.19922 473.44922 L 207.95117 475.44922 L 206.2832 477.0332 L 201.0332 475.86523 L 202.7832 473.28125 L 204.2832 468.03125 L 200.2832 463.78125 L 199.86523 458.44531 L 197.69922 455.7793 L 193.94727 457.19531 L 193.94727 459.86328 L 189.28125 460.69727 L 185.94727 460.0293 L 183.69727 462.0293 L 183.36328 464.11328 L 187.11328 465.44727 L 183.2793 467.69727 L 184.0293 470.44727 L 181.19531 471.86523 L 179.2793 471.94922 L 180.0293 467.94727 L 179.7793 463.53125 L 177.86133 463.86328 L 175.69531 466.69727 L 170.91016 464.74414 L 173.30859 470.57227 L 171.64844 476.29297 L 171.62305 476.73438 L 170.62305 477.07031 L 167.97852 477.74414 L 168.42969 477.92969 L 166.02344 479.5332 L 164.63867 479.5332 L 162.01367 482.23242 L 155.66992 479.9707 L 152.16992 483.76367 L 153.33789 486.75977 L 161.63672 485.35547 L 170.34375 481.94922 L 171.32031 481.80859 L 177.93164 483.80664 L 181.99219 505.19922 L 169.16797 509.77344 L 168.66406 511.14844 L 174.36328 521.17773 L 168.77344 531.2832 L 180.06055 539.3457 L 184.25391 540.33984 L 195.97461 532.16211 L 196.73242 523.26562 L 201.4082 517.69531 L 213.67188 519.12695 L 218.25586 521.375 L 220.76758 519.16211 L 228.24219 521.5918 L 232.5293 532.39258 L 236.54688 535.61328 L 238.31641 540.87695 L 247.17969 542.36523 L 251.43945 545.4375 L 255.67188 546.59375 L 253.79102 531.375 L 256.79102 521.20703 L 255.20898 513.87109 L 260.54297 506.20312 L 256.79102 487.61719 L 264.70898 476.0332 L 264.95898 469.28125 L 283.62891 447.19531 L 290.63086 441.35938 L 298.29883 441.02734 L 316.96875 447.86133 L 323.88672 438.27539 L 325.38672 421.68945 L 313.2168 412.68945 L 313.80078 409.60547 L 333.45312 380.89648 L 303.17773 378.16406 L 296.0625 385.26758 L 291.56836 386.57422 L 278.38086 383.60742 L 273.77344 377.28711 z M 246.62305 378.68359 L 239.12305 382.34961 L 241.12305 384.76758 L 247.99805 379.68359 L 246.62305 378.68359 z M 249.37305 380.59961 L 245.28906 384.26758 L 248.79102 384.85156 L 249.79102 388.35156 L 253.45703 386.26758 L 253.29102 383.93359 L 249.37305 380.59961 z M 257.20898 383.18359 L 255.20898 386.18359 L 259.625 386.35156 L 257.20898 383.18359 z M 254.54102 387.85156 L 253.95703 389.43555 L 254.95898 391.26953 L 254.79102 393.93555 L 261.79297 388.93555 L 254.54102 387.85156 z M 253.20703 397.51953 L 253.04102 397.85352 L 249.95703 399.35352 L 251.79102 402.1875 L 253.20703 397.51953 z M 243.53906 398.85352 L 243.95703 401.35352 L 247.12305 402.1875 L 247.12305 400.1875 L 243.53906 398.85352 z M 249.87305 404.02148 L 249.95703 408.77148 L 253.04102 409.10547 L 254.04102 405.85352 L 249.87305 404.02148 z M 175.0293 440.27734 L 173.36133 442.94336 L 163.69336 445.44336 L 163.10938 446.90234 L 171.11133 448.36133 L 175.61133 446.36133 L 177.11133 442.77734 L 175.0293 440.27734 z M 176.61133 449.94531 L 168.02734 452.19531 L 169.44336 454.19531 L 162.27539 455.11328 L 159.19336 458.7793 L 159.69336 460.36328 L 161.27539 460.36328 L 165.94336 460.0293 L 177.5293 461.11328 L 182.86328 458.36328 L 183.69727 455.7793 L 178.0293 454.19531 L 178.86328 451.5293 L 176.61133 449.94531 z "
         style="fill:url(#linearGradient903);fill-opacity:1;fill-rule:evenodd;stroke:none;stroke-width:1px;stroke-linecap:butt;stroke-linejoin:miter;stroke-opacity:1">
        <title
           id="title906">Trøndelag</title>
      </path>
    </g>
    <path
       id="path4791"
       d="M 201.82422 518.7793 L 197.70508 523.73828 L 196.95703 532.70508 L 185.12305 540.93945 L 183.71875 541.24023 L 179.61523 540.25391 L 167.77734 531.93359 L 158.17969 527.69922 L 142.01172 529.58594 L 133.66797 537.42773 L 127.85938 535.55273 L 121.33789 540.62891 L 118.27148 539.29297 L 114.82031 542.42578 L 115.67383 543.47461 L 115.77344 557.57812 L 117.2168 560.72266 L 121.49609 559.94922 L 126.625 563.30078 L 125.87891 568.6875 L 127.45117 573.76758 L 132.94141 575.62305 L 136.08594 580.75391 L 135.72656 584.23242 L 130.00195 584.43945 L 131.85938 589.98242 L 125.82617 593.07617 L 124.95117 596.83984 L 128.27539 605.01172 L 134.875 610.73438 L 138.63867 612.89844 L 143.2793 619.36914 L 146.91406 619.83398 L 156.68359 630.01562 L 159.1582 642.90625 L 164.13477 646.12891 L 168.15625 650.5625 L 169.57422 649.53125 L 170.65625 646.05078 L 176.42969 642.33789 L 178.90625 644.94141 C 179.12286 647.12427 179.65439 649.81789 180.07812 652.44922 C 180.36933 654.25748 180.41169 654.39387 180.68945 656.0332 L 185.58398 661.60352 L 198.10742 663.49023 L 198.75781 662.07812 L 195.17383 656.62305 L 197.20117 654.47852 L 202.83398 655.75977 L 208.62305 652.37891 L 209.52344 651.83203 L 212.05273 656.80078 L 214.06055 657.05664 L 216.81445 672.05664 L 225.5332 685.93164 L 224.26172 696.8418 L 230.48047 695.72266 L 235.73047 696.96289 L 244.99023 686.68164 L 248.49023 673.11914 L 253.00977 662.83789 L 251.1875 659.33789 L 251.77148 654.30859 L 246.08398 631.19336 L 248.19727 628.34961 L 258.25977 627.62109 L 267.00977 609.39258 L 259.79102 595.75781 L 256.36523 595.75781 L 248.63477 582.99805 L 257.16602 557.1875 L 255.87305 547.74414 L 250.96484 546.36328 L 246.75781 543.2793 L 237.53516 541.7832 L 235.69336 536.22461 L 231.68359 533.07031 L 227.50781 522.37109 L 220.98242 520.29297 L 218.41211 522.53516 L 213.32617 520.03711 L 201.82422 518.7793 z "
       style="fill:url(#linearGradient1231);fill-opacity:1.0;fill-rule:evenodd;stroke:none;stroke-width:1px;stroke-linecap:butt;stroke-linejoin:miter;stroke-opacity:1">
      <title
         style="fill-opacity:1.0;fill:url(#linearGradient1231)"
         id="title1153">Innlandet</title>
    </path>
    <path
       id="path4793"
       d="m 185.34731,682.69871 2.93969,3.82132 0.15644,3.5611 2.26858,-0.41246 0.70673,5.73257 4.53618,-0.71368 2.36985,-7.51055 -5.34693,-11.61647 -3.641,0.29337 z"
       style="fill:url(#linearGradient1223);fill-opacity:1.0;fill-rule:evenodd;stroke:none;stroke-width:1px;stroke-linecap:butt;stroke-linejoin:miter;stroke-opacity:1">
      <title
         style="fill-opacity:1.0;fill:url(#linearGradient1223)"
         id="title983">Oslo</title>
    </path>
    <g
       style="fill:url(#linearGradient1215);fill-opacity:1.0;stroke:none"
       id="g4799">
      <title
         style="fill-opacity:1.0;fill:url(#linearGradient1215)"
         id="title1165">Viken</title>
      <path
         id="path4795"
         d="M 128.16016 606.24805 L 124.38281 612.62891 L 118.85352 615.30859 L 116.0957 615.10352 L 113.43945 616.23828 L 109.59961 622.51562 L 105.37109 622.73438 L 102.48438 625.45312 L 106.05469 630.3125 L 104.6875 633.87109 L 106.55664 638.34375 L 95.375 660.17188 L 101.20508 658.82812 L 106.01562 661.67188 L 116.35742 659.11914 L 125.42188 662.41602 L 134.51758 663.72461 L 139.74805 671.00391 L 141.3457 676.67578 L 144.85156 680.49219 L 145.54688 685.18359 L 148.04883 688.53516 L 149.41406 709.57031 L 154.91992 715.18555 L 157.28125 712.66406 L 163.54102 713.33398 L 163.02539 705.21289 L 169.31641 700.16016 L 171.71289 702.17188 L 176.45703 699.56836 L 179.96289 703.30664 L 179.21484 711.83789 L 183.44336 710.52344 L 185.2207 706.03906 L 182.54102 697.73828 L 182.7207 697.60938 L 182.55273 697.51953 L 182.60352 696.60938 L 183.75195 691.21484 L 187.29492 689.97852 L 187.25977 686.86328 L 184.56055 683.33398 L 184.44727 682.19336 L 188.46875 675.41211 L 189.26953 674.81836 L 193.00195 674.5625 L 193.87305 675.06445 L 199.43945 687.13086 L 196.74219 695.58203 L 191.50195 696.5 L 188.23633 694.66992 L 185.96875 699.05273 L 187.36133 704.82617 L 186.08789 713.10742 L 185.96484 714.51367 L 183.37695 723.7207 L 186.51367 727.43945 L 185.7832 730.57617 L 189.50195 736.91797 L 192.41992 735.5332 L 195.69922 738.23047 L 197.88672 736.04492 L 199.3457 737.93945 L 199.30859 740.51367 L 204.42578 743.69922 L 204.36914 754.04102 L 205.12305 756.33203 L 208.55469 755.6543 L 214.14258 745.83398 L 215.31445 741.14844 L 218.00195 734.70312 L 217.5918 724.25391 L 216.49023 712.61133 L 222.68555 709.16797 L 224.70312 705.41797 L 223.51562 703.16406 L 223.91406 702.00586 L 223.22852 696.6875 L 224.5 686.16016 L 215.86523 672.33008 L 213.24219 657.92969 L 211.35742 657.76953 L 209.11133 653.20898 L 203.08203 656.78125 L 197.57031 655.54492 L 196.42383 656.81055 L 199.88867 661.94531 L 198.63867 664.67188 L 197.67188 664.43555 L 185.07422 662.53711 L 181.00781 657.91211 L 179.82422 656.5293 L 177.92578 645.38086 L 176.27539 643.57617 L 171.50586 646.66992 L 170.47656 650.07227 L 168 651.87695 L 163.4375 646.82422 L 158.25586 643.47266 L 155.78125 630.55859 L 146.42383 620.73633 L 142.76367 620.32422 L 137.86523 613.5957 L 134.30859 611.5332 L 128.16016 606.24805 z "
         style="fill:url(#linearGradient1215);fill-opacity:1.0;fill-rule:evenodd;stroke:none;stroke-width:1px;stroke-linecap:butt;stroke-linejoin:miter;stroke-opacity:1">
        <title
           style="fill-opacity:1.0;fill:url(#linearGradient1215)"
           id="title1104">Viken</title>
      </path>
    </g>
    <path
       id="path4805"
       d="m 101.08984,659.90039 -6.646481,1.44922 -3.929687,5.03516 -4.371094,1.35156 -3.865234,3.46094 -2.228516,7.33984 -0.923828,3.97851 3.806641,3.6875 4.05664,0.42969 4.158203,13.63672 -0.24414,2.35352 -2.705078,0.89843 0.441406,3.25586 3.007812,3.08789 1.125,14.63477 3.554688,7.67188 5.558598,0.3125 7.25976,6.6582 4.04297,-0.83008 4.6543,4.84375 1.69726,-1.91406 0.2168,-3.01367 7.95508,-1.69727 5.10742,9.15625 -0.49805,3.1875 4.14453,3.44922 3.0918,-3.00977 -2.84375,-2.84375 0.4375,-1.09375 h 6.5625 l 1.09375,-2.47851 4.73828,0.0723 1.3125,-2.40625 -1.89453,-2.1875 0.0723,-6.63476 3.08789,4.28515 0.81054,0.63282 2.22657,1.71679 -0.65625,4.88477 3.5,0.4375 6.63476,-4.30078 2.40625,0.72851 5.46875,-7 0.72852,-4.73828 3.5,-1.02148 1.82422,-2.69727 -0.875,-2.1875 1.16601,-4.15625 -4.52148,-5.6875 0.14258,-1.9707 1.85351,-0.0781 1.81445,1.16211 0.83399,-8.02343 -2.70117,-2.92969 -4.63086,2.56055 -2.32813,-1.94336 -5.29492,4.28125 0.55078,8.76171 -6.95898,-0.76367 -1.96875,2.21875 -0.94727,0.48047 -6.29492,-6.40625 -1.34961,-21.06836 -2.42773,-3.37304 -0.74414,-4.66211 -3.5,-3.75586 -1.54102,-5.72852 -4.89063,-6.75977 -8.82226,-1.30664 -8.84375,-3.13671 -10.375,2.45898 z"
       style="fill:url(#linearGradient1199);fill-opacity:1.0;fill-rule:evenodd;stroke:none;stroke-width:1px;stroke-linecap:butt;stroke-linejoin:miter;stroke-opacity:1">
      <title
         style="fill-opacity:1.0;fill:url(#linearGradient1199)"
         id="title981">Vestfold og Telemark</title>
    </path>
    <g
       style="fill:url(#linearGradient1239);fill-opacity:1.0;stroke:none"
       id="g4835">
      <title
         style="fill-opacity:1.0;fill:url(#linearGradient1239)"
         id="title1161">Møre og Romsdal</title>
      <path
         id="path901"
         d="M 152.16992 457.66016 L 145.02539 459.48242 L 143.93164 461.81641 L 148.08789 464.51367 L 148.74414 466.99219 L 154.06641 463.49219 L 152.16992 457.66016 z M 164.49219 464.80469 L 161.28516 467.86719 L 165.00391 469.10742 L 166.46094 466.33594 L 164.49219 464.80469 z M 169.90625 465.07812 L 169.30469 465.09766 L 168.72266 470.05469 L 165.80469 469.76367 L 164.20117 471.43945 L 163.98242 476.10742 L 166.42773 477.10938 L 170.68359 476.02344 L 170.68359 476.02148 L 172.24023 470.65625 L 169.90625 465.07812 z M 160.77539 471.95117 L 156.25391 472.46094 L 156.25391 475.74219 L 159.31641 478.14844 L 162.52539 475.23242 L 160.77539 471.95117 z M 149.10742 472.75195 L 145.46289 475.5957 L 146.33789 477.41992 L 148.96289 477.56445 L 151.15039 473.4082 L 149.10742 472.75195 z M 154.43164 473.70117 L 151.95117 475.96094 L 153.11914 476.76367 L 154.94141 474.2832 L 154.43164 473.70117 z M 135.03516 478.29492 L 132.84961 480.33594 L 129.34961 480.33594 L 128.47461 482.5957 L 131.90039 486.75195 L 135.40039 484.56445 L 136.34766 480.11719 L 135.03516 478.29492 z M 139.84766 478.87695 L 138.31641 482.01367 L 139.62891 483.4707 L 141.59766 483.17969 L 143.34766 479.82617 L 139.84766 478.87695 z M 147.50391 480.77344 L 146.11914 483.0332 L 148.59766 490.98047 L 148.16016 491.85547 L 150.63867 495.7207 L 152.38867 500.31445 L 155.16016 503.30273 L 157.12891 507.45898 L 154.13867 506.00195 L 151.73242 502.13672 L 147.35938 499.07422 L 146.19141 492.29297 L 142.98438 487.91797 L 137.44141 489.37695 L 136.05664 487.33594 L 130.36914 488.7207 L 123.73438 481.42969 L 119.21289 482.08594 L 114.91211 485.94922 L 116.00586 490.4707 L 118.41211 491.92969 L 118.70312 493.67969 L 115.64062 493.82422 L 114.18359 496.74219 L 117.24609 499.2207 L 120.74414 497.61719 L 126.06836 498.63672 L 126.06836 501.33398 L 132.4082 501.74609 L 133.57812 502.7207 L 128.54688 505.27148 L 126.14062 508.4082 L 129.34961 511.0332 L 127.52539 512.63672 L 117.75586 505.7832 L 115.85938 507.0957 L 114.62109 503.5957 L 111.48438 502.42773 L 109.15234 505.12695 L 104.63086 500.31445 L 102.22461 502.64648 L 94.568359 501.62695 L 91.724609 504.25195 L 96.566406 506.26367 L 98.871094 508.69922 L 91.505859 510.01172 L 94.277344 513.07422 L 103.24609 511.68945 L 107.35938 515.21094 L 107.03711 517.08398 L 98.943359 514.60547 L 93.474609 516.28125 L 93.556641 518.98242 L 92.162109 521.3125 L 89.246094 516.35547 L 86.767578 515.18945 L 81.226562 518.90625 L 81.226562 521.16797 L 78.601562 523.71875 L 80.277344 528.89648 L 78.021484 530.6875 L 75.902344 530.71875 L 76.195312 522.48047 L 73.205078 523.79297 L 70.433594 522.84375 L 68.539062 525.76172 L 65.185547 521.45898 L 62.048828 521.24023 L 60.882812 525.10547 L 55.123047 516.7207 L 53.810547 517.66797 L 53.3125 522.94531 L 62.71875 533.30469 L 77.662109 537.08398 L 81.611328 535.82227 L 85.634766 538.88086 L 91.314453 544.75195 L 100.83984 542.36914 L 113.66797 542.04297 L 118.06445 538.0918 L 121.13477 539.41602 L 127.67773 534.43164 L 133.37305 536.25977 L 141.53516 528.58789 L 158.32031 526.66211 L 167.81445 530.73047 L 172.83984 521.16016 L 167.32422 511.19336 L 168.21094 509.04297 L 180.79102 504.4707 L 177.12109 484.63281 L 170.99609 482.76953 L 161.9043 486.32422 L 153.71094 487.71094 L 153.84766 488.06445 L 156.32617 488.21094 L 159.60742 490.10547 L 157.05664 491.3457 L 158.22266 494.11719 L 157.71289 496.44922 L 153.11914 495.7207 L 153.26367 490.32422 L 150.27539 484.49219 L 150.63867 482.45117 L 147.50391 480.77344 z M 110.46484 488.50195 L 108.71484 490.32422 L 110.24609 492.36719 L 111.48438 492.6582 L 113.16211 491.92969 L 112.94336 489.52344 L 110.46484 488.50195 z M 107.69336 495.35547 L 105.28711 496.74219 L 105.72461 498.71094 L 109.22461 499.51172 L 111.77734 498.19922 L 111.63086 496.52344 L 107.69336 495.35547 z M 79.330078 508.48047 L 77.214844 510.52148 L 76.449219 518.28711 L 80.714844 516.20898 L 81.371094 512.05273 L 79.330078 508.48047 z M 85.455078 508.99023 L 84.142578 510.88672 L 87.277344 512.63672 L 89.755859 511.4707 L 88.517578 509.64648 L 85.455078 508.99023 z M 67.882812 516.28125 L 66.716797 518.98047 L 69.304688 521.16797 L 72.548828 519.85547 L 72.695312 516.9375 L 67.882812 516.28125 z "
         style="fill:url(#linearGradient908);fill-opacity:1;fill-rule:evenodd;stroke:none;stroke-width:1px;stroke-linecap:butt;stroke-linejoin:miter;stroke-opacity:1" />
    </g>
    <g
       style="fill:url(#linearGradient1207);fill-opacity:1.0;stroke:none"
       id="g4929">
      <title
         style="fill-opacity:1.0;fill:url(#linearGradient1207)"
         id="title1163">Vestland</title>
      <path
         id="path4850"
         d="m 48.052734,527.57031 0.462891,2.78516 1.496094,1.80469 1.90625,-1.13477 -0.566407,-1.85547 z m 11.082032,3.28321 -7.060547,3.57421 0.669922,1.28907 3.660156,0.61914 5.980469,0.15429 3.09375,2.26954 4.330078,-0.25782 0.568359,3.09375 4.896485,1.85547 6.669921,2.42774 2.25,1.02734 -1.082031,0.66992 -2.902344,-1.07617 -1.43164,1.19727 -1.183594,2.66211 -3.041016,-3.29883 -2.527343,1.75195 -0.773438,-4.38281 -3.349609,0.67187 -1.646485,-0.99023 0.138672,-1.00977 1.404297,-1.04297 -1.443359,-0.97851 -3.351563,-1.59961 -3.248047,-1.33985 -10.3125,5.15626 0.207032,1.95898 -1.185547,1.54687 -1.238282,-1.08398 -3.660156,-0.30859 -0.773437,3.81445 3.71289,4.02148 3.402344,-0.92773 2.835938,2.0625 -1.44336,1.80469 -3.867187,0.46484 -0.773438,2.2168 6.546875,5.82617 2.835938,-0.56836 1.238281,1.28906 -3.404297,1.39258 -3.144531,-0.92773 -3.144531,-3.60938 -2.785157,1.59766 -3.298828,-0.72071 -0.207031,3.76368 -1.443359,1.90625 9.796875,0.87695 -3.144532,3.91797 -2.732421,-2.62891 -5.56836,2.78516 2.31836,3.45312 1.753906,0.56836 1.134765,2.52539 -2.269531,2.83594 3.351563,2.7832 1.753906,1.75391 6.701172,-2.01172 6.291015,-2.42187 2.371094,2.26757 4.433594,-0.875 2.0625,3.45313 2.835937,-0.97852 4.279297,3.66016 3.248047,0.0508 2.990235,-4.48437 5.568359,3.50586 4.125,-0.41211 3.402344,5.72265 4.382812,-2.21679 3.093747,2.21679 -2.835934,2.42188 -2.47461,-0.82422 -4.382812,3.81445 -2.216797,-6.23828 -3.042969,-1.28906 -2.576172,-2.16406 -3.558594,2.6289 -7.474609,1.85547 -6.652344,-4.8457 -4.484375,-1.70117 -3.71289,2.52539 -2.681641,-2.73243 -2.371094,-0.61914 -7.578125,3.97071 -3.609375,-3.66016 -4.640625,-1.59961 -3.248046,2.01172 1.958984,2.93945 -0.490234,5.87696 -0.488282,1.33984 2.060547,2.83594 3.816406,-1.54688 1.650391,0.31055 -4.021484,4.12305 2.576172,5.98242 -1.958985,1.23633 -2.679687,-4.125 -4.53711,-3.60938 1.855469,6.08399 -0.515625,5.56836 2.783203,2.68164 5.878906,-1.95899 2.783203,-4.22851 4.433594,-0.41211 -0.101562,6.39257 -3.919922,9.17774 -3.298828,0.72266 -6.083985,-7.21876 -2.68164,1.13477 -1.546875,7.11523 -2.164063,4.02149 2.0625,2.67969 -0.927734,4.53711 2.576172,2.57812 4.228515,-2.47461 4.613282,-5.75195 1.574218,0.49414 -1.134765,3.91797 -3.197266,5.15625 4.021485,0.92773 v 5.46485 l -2.0625,1.13476 1.960937,3.29883 1.648437,0.10352 3.402344,-9.28125 4.228516,-2.47461 1.134766,-2.57813 3.402343,-1.33984 2.371094,-3.40235 5.671875,-1.34179 7.322266,-3.60743 2.267578,1.95899 9.693359,-3.81641 0.515625,3.40235 -4.332031,0.51562 -7.732422,8.45703 -0.927734,-4.22851 -2.578125,-2.0625 -14.230469,10.20898 -0.412109,3.91797 2.990234,1.85547 -7.837891,2.37305 -2.164062,5.05273 -5.56836,0.7207 -2.269531,3.81641 0.207031,4.12305 1.958985,1.65039 2.0625,-1.65039 0.103515,4.53711 -2.68164,-0.41211 -2.886719,2.37304 1.751953,2.06055 -2.578125,1.65039 -1.855469,-3.71094 H 32.6875 l -2.578125,3.71094 -1.236328,-1.0625 0.308594,-5.125 -6.177735,4.28711 -3.527344,3.52148 -1.894531,3.43165 6.882813,0.54101 3.814453,-3.11914 7.269531,0.85156 2.681641,-1.49609 6.625,2.19141 3.685547,-1.9336 3.71289,-5.07812 8.455078,-4.30469 4.046875,0.0254 1.650391,2.93945 -0.902344,5 1.44336,1.3418 7.166015,-2.93945 5.234375,0.61914 2.113282,-6.78125 4.171874,-3.75196 4.257813,-1.27343 4.666016,-5.98047 10.904299,-21.32031 -1.85547,-4.40821 1.33984,-3.40234 -3.22265,-4.38281 -0.0137,-0.0137 -0.0879,-1.14648 3.34961,-3.19531 4.07422,-0.20703 3.71094,-6.0586 3.14648,-1.39062 2.73243,0.23047 5.02734,-2.42188 3.76367,-6.31641 -3.5332,-8.6875 1.05664,-4.48632 5.72461,-2.88672 -2.0625,-6.00586 6.23828,-0.25781 0.20508,-2.29493 -2.88672,-4.48437 -5.54297,-1.88281 -1.72656,-5.85157 0.64453,-4.94921 -4.30469,-2.78516 -4.58984,0.87695 -1.88086,-4.04687 -0.082,-13.97461 -0.63477,-0.72852 -13.6289,0.32031 -9.285525,2.5971 -5.587527,-5.91741 L 81.470703,537 l -3.710937,1.19922 -15.650391,-3.99414 z m -14.949219,3.36914 -2.166016,1.23632 -0.412109,5.6211 1.855469,0.66992 7.269531,-2.93945 z m -7.734375,31.81054 -1.339844,1.75391 1.390625,1.80273 1.960938,-0.875 v -2.01172 z m -3.814453,12.88868 -3.042969,2.32031 2.269531,2.88867 2.421875,-0.0527 0.515625,-3.04101 z m -7.347657,4.56445 -0.179687,2.5 h 1.751953 l 0.257813,-1.90821 z m 1.830079,21.21484 2.113281,8.04297 h 2.0625 l -2.4375,-6.00586 z m 1.701171,9.43555 -1.701171,0.87695 3.351562,4.84571 2.0625,0.51562 -0.310547,-2.57812 z m 0.464844,7.01172 -1.804687,1.65039 2.320312,3.50586 1.185547,-2.57813 z m -4.640625,3.55664 -1.392578,2.93945 0.257813,2.47461 1.443359,1.13477 1.496094,-1.44336 z m -2.216797,8.4043 0.669922,3.50585 2.449219,1.75391 0.490234,-2.47461 -0.669921,-2.16601 z m 4.486328,11.70312 -1.908203,1.80469 1.236329,2.52734 2.373046,-1.85547 z m 3.96875,1.96094 0.41211,2.73242 1.958984,-2.0625 z m 19.644532,0.92773 -1.03125,2.67969 1.597656,1.13476 1.03125,-2.7832 z m -14.591797,3.09375 -4.433594,4.74219 1.494141,0.46484 1.753906,3.96875 2.886719,-1.33984 -0.103516,-2.52539 2.011719,-2.01172 -0.207031,-2.93945 z m -7.835938,4.58789 -1.238281,2.52539 -0.02539,5.82618 3.222656,2.83593 1.392578,-4.94922 -1.496094,-5.56836 z M 21.5,660.48633 l -1.289062,1.28906 -0.41211,2.37305 3.041016,3.34961 1.701172,0.10351 z m -1.753906,8.66211 -2.578125,3.86718 1.546875,2.26758 1.753906,-2.9375 z"
         style="fill:url(#linearGradient1207);fill-opacity:1.0;fill-rule:evenodd;stroke:none;stroke-width:1px;stroke-linecap:butt;stroke-linejoin:miter;stroke-opacity:1">
        <title
           style="fill-opacity:1.0;fill:url(#linearGradient1207)"
           id="title973">Vestland</title>
      </path>
    </g>
    <path
       id="path4868"
       d="m 80.283203,685.01562 -7.5,5.41993 0.212891,4.45312 -6.369141,3.90235 -3.34375,12.30664 2.693359,1.4707 -0.615234,0.87695 -6.019531,7.93164 -6.429688,4.375 -1.388671,2.9336 0.03711,3.80078 -2.208985,2.05273 0.375,5.12891 -4.74414,2.55859 0.125,2.04102 3.009766,0.74023 -4.375,15.72266 -3.78125,2.36914 3.203124,2.76562 2.990235,-0.875 1.021484,2.625 3.0625,0.875 -3.28125,1.96875 -4.011719,1.75 -1.384765,2.625 3.646484,5.39649 2.550781,-1.38672 1.240235,-5.97852 2.259765,0.94727 0.146485,4.66797 4.59375,3.28125 3.9375,-1.45899 0.509765,2.76954 11.519532,4.375 1.53125,-1.45704 10.0625,-0.36523 2.40625,-2.40625 -1.75,-2.55078 2.333984,-1.89649 2.769531,0.65625 2.115235,5.03125 3.683594,-1.96679 1.001953,-0.30078 4.939448,-4.29493 2.91602,1.16602 8.96875,-8.45703 1.02148,-3.71875 6.05078,-1.75 0.4375,-3.20899 3.28126,-1.3125 5.61523,-1.38476 2.04101,-2.40625 -0.80273,-4.15625 4.39649,-0.24024 -3.75586,-3.16015 0.54687,-3.38477 -4.60351,-8.19922 -6.47852,1.375 -0.17188,2.57422 -2.64648,3.02539 -5.0625,-5.25 -3.97852,0.8125 -7.3789,-6.76953 -5.78711,-0.29297 -3.88086,-8.44726 -1.140625,-14.40039 -2.953125,-3.08789 -0.609375,-4.375 2.88086,-0.97461 0.193359,-1.47852 -3.927734,-12.83789 -3.759766,-0.39648 z"
       style="fill:url(#linearGradient1183);fill-opacity:1.0;fill-rule:evenodd;stroke:none;stroke-width:1px;stroke-linecap:butt;stroke-linejoin:miter;stroke-opacity:1">
      <title
         style="fill-opacity:1.0;fill:url(#linearGradient1183)"
         id="title1155">Agder</title>
    </path>
    <g
       style="fill:url(#linearGradient1191);fill-opacity:1.0;stroke:none"
       id="g4965">
      <title
         style="fill-opacity:1.0;fill:url(#linearGradient1191)"
         id="title1167">Rogaland</title>
      <path
         id="path4874"
         d="m 64.220703,671.4043 -3.285156,0.004 -8.021485,4.09571 -3.689453,5.08593 -4.203125,2.20508 -6.701172,-2.17383 -2.511718,1.42383 -7.230469,-0.83984 -3.736328,3.11328 -7.294922,-0.53516 -0.412109,0.78321 2.1875,5.39648 h 2.333984 l 2.697266,6.70703 6.634765,0.58399 5.978516,-2.77149 0.4375,-2.40625 -3.0625,-0.36328 -1.457031,-2.33398 1.09375,-1.3125 1.894531,0.80273 0.365234,-3.0625 1.240235,0.14453 0.875,-1.96875 1.091796,3.71875 3.5,1.53125 -2.84375,1.45899 v 4.15625 l 7.949219,-4.375 1.96875,0.29101 -6.5625,5.76172 2.478516,2.04102 -1.96875,1.89453 2.115234,1.67773 -1.96875,2.55274 -6.052734,2.40625 v 2.76953 l -3.425781,0.73047 -1.3125,1.3125 0.4375,2.84375 2.988281,1.89453 -0.800781,3.79101 1.166015,0.0742 1.96875,-1.09375 4.519531,0.50977 -1.822265,1.45898 -3.425781,1.23828 -0.730469,4.08399 -3.572266,-4.22852 -0.509765,-2.11523 -2.40625,-1.60352 -4.302735,3.28125 -2.333984,-1.89648 0.65625,-1.38477 0.65625,-2.47851 -1.894531,-2.84375 -1.96875,0.29101 0.947265,3.35352 -6.78125,13.05273 1.75,3.35352 v 5.83203 l 6.490235,9.625 3.207031,1.02148 0.4375,4.66602 10.71875,8.03516 4.152344,-2.5254 4.052734,-14.39648 -2.783203,-0.70703 -0.236328,-3.35938 4.751953,-2.59961 -0.300781,-4.92578 2.189453,-2.09961 -0.01758,-3.61132 1.537109,-3.31446 6.525391,-4.41992 5.867187,-7.73633 -2.328125,-1.38867 3.671875,-13.50977 6.207031,-3.73242 -0.253906,-4.38086 7.767578,-5.64648 -1.503906,-1.48828 1.048828,-4.47656 -4.914062,-0.51758 -7.4375,3.02929 -2.283203,-2.12109 0.982421,-5.13476 z m -47.568359,16.5625 -1.494141,2.93945 -2.371094,2.7832 -0.414062,4.02149 0.310547,5.15625 2.679687,-0.51563 1.546875,-2.47461 1.650391,-4.33007 -0.308594,-3.50586 z m 4.177734,10.57031 -0.722656,2.47461 0.515625,1.54687 1.546875,-2.0625 z m 18.869141,1.03125 -3.814453,1.03125 v 2.16406 l 1.289062,0.82617 h 1.494141 l 3.300781,-2.0625 z m -7.835938,4.53711 -1.857422,0.92773 1.238282,1.75196 1.751953,-0.82422 z m -7.83789,3.91797 1.857421,2.88672 1.958985,-1.65039 -1.753906,-0.20508 z"
         style="fill:url(#linearGradient1191);fill-opacity:1.0;fill-rule:evenodd;stroke:none;stroke-width:1px;stroke-linecap:butt;stroke-linejoin:miter;stroke-opacity:1">
        <title
           style="fill-opacity:1.0;fill:url(#linearGradient1191)"
           id="title965">Rogaland</title>
      </path>
    </g>
    <g
       style="fill:#cccccc;fill-opacity:1;stroke:none"
       id="g4914" />
  </g>
</svg>
